<svg version="1.1" viewBox="0 0 32 32" xmlns="http://www.w3.org/2000/svg">
 <path d="m14.23 13.23a1 1 0 0 0-0.70703 0.29297 1 1 0 0 0 0 1.4141l1.0625 1.0625-1.0625 1.0625a1 1 0 0 0 0 1.4141 1 1 0 0 0 1.4141 0l1.0625-1.0625 1.0625 1.0625a1 1 0 0 0 1.4141 0 1 1 0 0 0 0-1.4141l-1.0625-1.0625 1.0625-1.0625a1 1 0 0 0 0-1.4141 1 1 0 0 0-1.4141 0l-1.0625 1.0625-1.0625-1.0625a1 1 0 0 0-0.70703-0.29297z" color="#000000" fill="#fff" opacity=".25" stroke-linecap="round" stroke-linejoin="bevel" style="-inkscape-stroke:none"/>
</svg>
