<?xml version="1.0" encoding="UTF-8" standalone="no"?>
<!-- Created with Inkscape (http://www.inkscape.org/) -->

<svg width="620" height="100.81714" viewBox="0 0 620 100.81714" version="1.1" id="svg5"
  inkscape:version="1.1.2 (0a00cf5339, 2022-02-04, custom)" sodipodi:docname="cathiecode.svg"
  xmlns:inkscape="http://www.inkscape.org/namespaces/inkscape"
  xmlns:sodipodi="http://sodipodi.sourceforge.net/DTD/sodipodi-0.dtd" xmlns="http://www.w3.org/2000/svg"
  xmlns:svg="http://www.w3.org/2000/svg">
  <sodipodi:namedview id="namedview7" pagecolor="#ffffff" bordercolor="#808080" borderopacity="1"
    inkscape:pageshadow="0" inkscape:pageopacity="0" inkscape:pagecheckerboard="0" inkscape:document-units="px"
    showgrid="true" units="px" showborder="true" borderlayer="true" inkscape:showpageshadow="false" lock-margins="true"
    inkscape:zoom="0.49718446" inkscape:cx="253.42707" inkscape:cy="-300.69323" inkscape:window-width="1920"
    inkscape:window-height="1025" inkscape:window-x="0" inkscape:window-y="588" inkscape:window-maximized="1"
    inkscape:current-layer="layer1" inkscape:snap-global="false" fit-margin-top="10" fit-margin-left="10"
    fit-margin-right="10" fit-margin-bottom="10" />
  <defs id="defs2" />
  <g inkscape:label="レイヤー 1" inkscape:groupmode="layer" id="layer1" transform="translate(-141.81934,-393.4483)">
    <path id="path63397"
      style="font-weight:bold;font-size:72px;line-height:168.75px;font-family:'Noto Sans';-inkscape-font-specification:'Noto Sans Bold';letter-spacing:0px;word-spacing:0px;fill:#ffffff;stroke-width:1.32993"
      d="M 247.18555 10 L 247.18555 82.773438 L 261.45312 82.773438 L 261.45312 58.164062 C 261.45312 52.610282 262.24978 48.366174 263.8457 45.429688 C 265.50545 42.429368 268.4749 40.929688 272.75195 40.929688 C 278.36957 40.929688 281.17773 44.695796 281.17773 52.228516 L 281.17773 82.773438 L 295.44531 82.773438 L 295.44531 48.685547 C 295.44531 41.9827 293.72256 37.131179 290.27539 34.130859 C 286.89205 31.066706 282.35919 29.533203 276.67773 29.533203 C 273.48591 29.533203 270.58019 30.140622 267.96289 31.353516 C 265.34559 32.566409 263.20858 34.514173 261.54883 37.195312 L 260.78125 37.195312 C 260.90892 36.237766 261.03834 34.576804 261.16602 32.214844 C 261.35752 29.85289 261.45313 27.395257 261.45312 24.841797 L 261.45312 10 L 247.18555 10 z M 317.27734 10 C 315.1069 10 313.25474 10.509863 311.72266 11.53125 C 310.25442 12.488797 309.52148 14.309101 309.52148 16.990234 C 309.52148 19.607541 310.25442 21.425886 311.72266 22.447266 C 313.25474 23.468652 315.1069 23.980469 317.27734 23.980469 C 319.38395 23.980469 321.20425 23.468652 322.73633 22.447266 C 324.26841 21.425886 325.0332 19.607541 325.0332 16.990234 C 325.0332 14.309101 324.26841 12.488797 322.73633 11.53125 C 321.20425 10.509863 319.38395 10 317.27734 10 z M 535.78906 10 L 535.78906 26.757812 C 535.78906 28.800579 535.91848 30.810129 536.17383 32.789062 C 536.42917 34.704162 536.65224 36.173926 536.84375 37.195312 L 536.36523 37.195312 C 534.96083 35.024866 533.04493 33.204568 530.61914 31.736328 C 528.19335 30.268088 525.09644 29.533203 521.33008 29.533203 C 515.32944 29.533203 510.47791 31.831501 506.77539 36.427734 C 503.07286 41.023968 501.22266 47.791389 501.22266 56.728516 C 501.22266 65.601802 503.041 72.33736 506.67969 76.933594 C 510.38221 81.465994 515.13814 83.730469 520.94727 83.730469 C 524.71363 83.730469 527.77867 82.997537 530.14062 81.529297 C 532.50258 79.997217 534.38466 78.145056 535.78906 75.974609 L 536.36523 75.974609 L 539.14062 82.773438 L 550.05664 82.773438 L 550.05664 10 L 535.78906 10 z M 51.078125 14.404297 C 44.822138 14.404297 39.173953 15.457846 34.130859 17.564453 C 29.087766 19.607226 24.746109 22.512937 21.107422 26.279297 C 17.532575 29.981817 14.788147 34.321521 12.873047 39.300781 C 10.957947 44.280035 10 49.675242 10 55.484375 C 10 62.889415 11.46781 69.240623 14.404297 74.539062 C 17.404617 79.773663 21.714411 83.794702 27.332031 86.603516 C 32.949651 89.412322 39.715119 90.816406 47.630859 90.816406 C 51.844073 90.816406 55.835203 90.434002 59.601562 89.667969 C 63.367922 88.901929 66.783496 87.880249 69.847656 86.603516 L 69.847656 77.603516 C 66.52815 78.816409 62.855691 79.838089 58.833984 80.667969 C 54.812278 81.497842 50.950567 81.912109 47.248047 81.912109 C 38.566267 81.912109 31.896395 79.613811 27.236328 75.017578 C 22.640088 70.421338 20.341797 63.815206 20.341797 55.197266 C 20.341797 49.005119 21.522812 43.514309 23.884766 38.726562 C 26.246726 33.938816 29.694169 30.172708 34.226562 27.427734 C 38.822802 24.618921 44.470988 23.214844 51.173828 23.214844 C 55.961575 23.214844 60.207636 24.202701 63.910156 26.181641 C 67.676516 28.160574 70.644006 31.034421 72.814453 34.800781 C 74.9849 38.503301 76.070312 43.036164 76.070312 48.398438 C 76.070312 51.271084 75.815381 53.91991 75.304688 56.345703 C 74.857828 58.707656 74.154812 60.621604 73.197266 62.089844 C 72.239719 63.49425 71.02684 64.197266 69.558594 64.197266 C 68.66488 64.197266 67.836346 63.782998 67.070312 62.953125 C 66.368106 62.059412 66.015625 60.302847 66.015625 57.685547 L 66.015625 56.441406 C 66.015625 55.739206 66.049415 55.068054 66.113281 54.429688 L 67.070312 34.800781 C 65.282886 34.162415 62.761526 33.586865 59.505859 33.076172 C 56.314026 32.501639 53.217117 32.214844 50.216797 32.214844 C 45.620564 32.214844 41.631387 33.172791 38.248047 35.087891 C 34.864707 36.939151 32.247744 39.524243 30.396484 42.84375 C 28.545224 46.099417 27.619141 49.865525 27.619141 54.142578 C 27.619141 59.696358 29.15069 64.197351 32.214844 67.644531 C 35.342837 71.027871 39.748228 72.71875 45.429688 72.71875 C 48.430008 72.71875 50.983237 72.113284 53.089844 70.900391 C 55.26029 69.687491 56.983039 68.283413 58.259766 66.6875 L 59.027344 66.6875 C 59.72955 68.474927 60.974299 69.942744 62.761719 71.091797 C 64.549145 72.177024 66.622422 72.71875 68.984375 72.71875 C 71.920862 72.71875 74.474085 72.049551 76.644531 70.708984 C 78.814971 69.304578 80.603406 67.420547 82.007812 65.058594 C 83.476052 62.696634 84.561465 60.079678 85.263672 57.207031 C 85.965872 54.334385 86.316406 51.430621 86.316406 48.494141 C 86.316406 41.472114 84.784856 35.407708 81.720703 30.300781 C 78.720383 25.193848 74.569924 21.266458 69.271484 18.521484 C 63.973044 15.776511 57.908638 14.404297 51.078125 14.404297 z M 212.33008 19.384766 L 208.21289 30.396484 L 200.36133 35.183594 L 200.36133 41.216797 L 207.16016 41.216797 L 207.16016 66.400391 C 207.16016 70.868957 207.86122 74.380134 209.26562 76.933594 C 210.73387 79.423227 212.68164 81.177839 215.10742 82.199219 C 217.59705 83.220605 220.40521 83.730469 223.5332 83.730469 C 226.21434 83.730469 228.67197 83.475537 230.90625 82.964844 C 233.20437 82.51799 235.12027 81.976257 236.65234 81.337891 L 236.65234 70.708984 C 235.1841 71.155838 233.71629 71.538242 232.24805 71.857422 C 230.77981 72.176609 229.24631 72.335938 227.65039 72.335938 C 225.79913 72.335938 224.29945 71.857937 223.15039 70.900391 C 222.00133 69.879004 221.42773 68.379331 221.42773 66.400391 L 221.42773 41.216797 L 236.07812 41.216797 L 236.07812 30.492188 L 221.42773 30.492188 L 221.42773 19.384766 L 212.33008 19.384766 z M 169.24023 29.4375 C 165.53771 29.4375 161.96281 29.853714 158.51562 30.683594 C 155.13228 31.513467 152.03732 32.662619 149.22852 34.130859 L 153.91992 43.800781 C 156.34571 42.715555 158.77147 41.823294 161.19727 41.121094 C 163.62305 40.355054 166.11255 39.970703 168.66602 39.970703 C 171.21948 39.970703 173.19912 40.609985 174.60352 41.886719 C 176.07176 43.163452 176.80469 45.172995 176.80469 47.917969 L 176.80469 50.216797 L 167.70898 50.503906 C 159.92092 50.759253 154.07958 52.227063 150.18555 54.908203 C 146.29152 57.525503 144.34375 61.612236 144.34375 67.166016 C 144.34375 72.783642 145.8753 76.964011 148.93945 79.708984 C 152.00361 82.390118 155.86728 83.730469 160.52734 83.730469 C 164.86824 83.730469 168.28186 83.09314 170.77148 81.816406 C 173.26111 80.53968 175.62314 78.496313 177.85742 75.6875 L 178.24219 75.6875 L 181.01758 82.773438 L 190.97656 82.773438 L 190.97656 47.917969 C 190.97656 41.661982 189.09449 37.035476 185.32812 34.035156 C 181.62561 30.970996 176.26226 29.4375 169.24023 29.4375 z M 121.07617 29.533203 C 116.03308 29.533203 111.56396 30.491157 107.66992 32.40625 C 103.83973 34.32135 100.84037 37.290793 98.669922 41.3125 C 96.499475 45.334207 95.414063 50.536262 95.414062 56.919922 C 95.414062 66.176229 97.519202 72.97552 101.73242 77.316406 C 106.00948 81.59346 112.04202 83.730469 119.83008 83.730469 C 123.46876 83.730469 126.47008 83.411804 128.83203 82.773438 C 131.25782 82.198911 133.55612 81.209094 135.72656 79.804688 L 135.72656 67.644531 C 133.55612 69.048938 131.32156 70.16622 129.02344 70.996094 C 126.72532 71.762134 124.07649 72.144531 121.07617 72.144531 C 117.56516 72.144531 114.81878 70.899783 112.83984 68.410156 C 110.92474 65.92053 109.96875 62.058825 109.96875 56.824219 C 109.96875 46.291185 113.67113 41.025391 121.07617 41.025391 C 122.99127 41.025391 124.90521 41.312192 126.82031 41.886719 C 128.79925 42.461245 130.90634 43.194177 133.14062 44.087891 L 137.35352 33.076172 C 135.37458 32.118625 133.04442 31.290097 130.36328 30.587891 C 127.74598 29.885691 124.65102 29.533203 121.07617 29.533203 z M 360.8457 29.533203 C 355.93028 29.533203 351.62244 30.55489 347.91992 32.597656 C 344.2174 34.64043 341.31168 37.705476 339.20508 41.791016 C 337.1623 45.812722 336.14062 50.887312 336.14062 57.015625 C 336.14062 63.016265 337.28977 67.995252 339.58789 71.953125 C 341.88601 75.910992 345.04665 78.880442 349.06836 80.859375 C 353.09007 82.774475 357.71852 83.730469 362.95312 83.730469 C 366.97483 83.730469 370.39041 83.411804 373.19922 82.773438 C 376.07187 82.198911 378.78442 81.272827 381.33789 79.996094 L 381.33789 68.984375 C 378.4014 70.388775 375.55943 71.442325 372.81445 72.144531 C 370.06948 72.782898 367.00639 73.101562 363.62305 73.101562 C 359.60134 73.101562 356.44069 71.95437 354.14258 69.65625 C 351.90829 67.35813 350.72728 64.197481 350.59961 60.175781 L 384.30664 60.175781 L 384.30664 53.28125 C 384.30664 45.684697 382.19954 39.843353 377.98633 35.757812 C 373.77311 31.608433 368.05924 29.533203 360.8457 29.533203 z M 418.39453 29.533203 C 413.35144 29.533203 408.88231 30.491157 404.98828 32.40625 C 401.15809 34.32135 398.15873 37.290793 395.98828 41.3125 C 393.81783 45.334207 392.73242 50.536262 392.73242 56.919922 C 392.73242 66.176229 394.83951 72.97552 399.05273 77.316406 C 403.32978 81.59346 409.36232 83.730469 417.15039 83.730469 C 420.78908 83.730469 423.78844 83.411804 426.15039 82.773438 C 428.57618 82.198911 430.87448 81.209094 433.04492 79.804688 L 433.04492 67.644531 C 430.87448 69.048938 428.63992 70.16622 426.3418 70.996094 C 424.04368 71.762134 421.39485 72.144531 418.39453 72.144531 C 414.88352 72.144531 412.1391 70.899783 410.16016 68.410156 C 408.24506 65.92053 407.28711 62.058825 407.28711 56.824219 C 407.28711 46.291185 410.98948 41.025391 418.39453 41.025391 C 420.30962 41.025391 422.22552 41.312192 424.14062 41.886719 C 426.11956 42.461245 428.2247 43.194177 430.45898 44.087891 L 434.67383 33.076172 C 432.69489 32.118625 430.36473 31.290097 427.68359 30.587891 C 425.06629 29.885691 421.96938 29.533203 418.39453 29.533203 z M 467.42188 29.533203 C 459.50614 29.533203 453.28045 31.863364 448.74805 36.523438 C 444.21565 41.183504 441.95117 47.855329 441.95117 56.537109 C 441.95117 62.346243 443.03463 67.293366 445.20508 71.378906 C 447.37552 75.400613 450.34497 78.465659 454.11133 80.572266 C 457.94153 82.678872 462.28319 83.730469 467.13477 83.730469 C 474.98667 83.730469 481.17854 81.368438 485.71094 76.644531 C 490.30718 71.920625 492.60547 65.218889 492.60547 56.537109 C 492.60547 50.727976 491.52006 45.844585 489.34961 41.886719 C 487.17916 37.865012 484.20972 34.799966 480.44336 32.693359 C 476.677 30.586753 472.33729 29.533203 467.42188 29.533203 z M 586.54102 29.533203 C 581.6256 29.533203 577.3158 30.55489 573.61328 32.597656 C 569.91075 34.64043 567.007 37.705476 564.90039 41.791016 C 562.85762 45.812722 561.83594 50.887312 561.83594 57.015625 C 561.83594 63.016265 562.98508 67.995252 565.2832 71.953125 C 567.58132 75.910992 570.74001 78.880442 574.76172 80.859375 C 578.78342 82.774475 583.41188 83.730469 588.64648 83.730469 C 592.66818 83.730469 596.08376 83.411804 598.89258 82.773438 C 601.76522 82.198911 604.47778 81.272827 607.03125 79.996094 L 607.03125 68.984375 C 604.09476 70.388775 601.25474 71.442325 598.50977 72.144531 C 595.76479 72.782898 592.69975 73.101562 589.31641 73.101562 C 585.2947 73.101562 582.136 71.95437 579.83789 69.65625 C 577.6036 67.35813 576.4226 64.197481 576.29492 60.175781 L 610 60.175781 L 610 53.28125 C 610 45.684697 607.8929 39.843353 603.67969 35.757812 C 599.46647 31.608433 593.75455 29.533203 586.54102 29.533203 z M 310.0957 30.492188 L 310.0957 82.773438 L 324.36328 82.773438 L 324.36328 30.492188 L 310.0957 30.492188 z M 360.94141 39.683594 C 364.32475 39.683594 366.81424 40.737143 368.41016 42.84375 C 370.00604 44.886523 370.83652 47.503486 370.90039 50.695312 L 350.88672 50.695312 C 351.2059 46.928953 352.25945 44.152661 354.04688 42.365234 C 355.89814 40.577814 358.19643 39.683594 360.94141 39.683594 z M 586.63672 39.683594 C 590.02006 39.683594 592.50955 40.737143 594.10547 42.84375 C 595.70135 44.886523 596.52988 47.503486 596.59375 50.695312 L 576.58203 50.695312 C 576.90121 46.928953 577.95476 44.152661 579.74219 42.365234 C 581.59345 40.577814 583.89175 39.683594 586.63672 39.683594 z M 50.791016 40.738281 C 51.876242 40.738281 52.866059 40.802014 53.759766 40.929688 C 54.653479 40.993527 55.45209 41.089124 56.154297 41.216797 L 55.580078 51.558594 C 55.324731 55.324954 54.52612 58.38804 53.185547 60.75 C 51.90882 63.048113 49.674255 64.197266 46.482422 64.197266 C 44.056635 64.197266 42.108872 63.430517 40.640625 61.898438 C 39.172385 60.366364 38.439453 57.844998 38.439453 54.333984 C 38.439453 52.035864 38.821851 49.865039 39.587891 47.822266 C 40.417764 45.715659 41.726245 44.02478 43.513672 42.748047 C 45.364932 41.40748 47.790696 40.738281 50.791016 40.738281 z M 467.23047 41.025391 C 471.06066 41.025391 473.80509 42.333872 475.46484 44.951172 C 477.18843 47.504632 478.05078 51.366343 478.05078 56.537109 C 478.05078 61.707876 477.18843 65.63332 475.46484 68.314453 C 473.80509 70.931753 471.09253 72.240234 467.32617 72.240234 C 463.49598 72.240234 460.71773 70.931753 458.99414 68.314453 C 457.33439 65.63332 456.50586 61.707876 456.50586 56.537109 C 456.50586 51.366343 457.33439 47.504632 458.99414 44.951172 C 460.71773 42.333872 463.46411 41.025391 467.23047 41.025391 z M 525.73633 41.121094 C 529.94954 41.121094 532.82144 42.461438 534.35352 45.142578 C 535.94943 47.823711 536.74805 51.717292 536.74805 56.824219 L 536.74805 58.355469 C 536.68421 63.015542 535.85373 66.526719 534.25781 68.888672 C 532.6619 71.186792 529.8856 72.335938 525.92773 72.335938 C 522.67207 72.335938 520.15071 71.059326 518.36328 68.505859 C 516.57585 65.888559 515.68164 62.026849 515.68164 56.919922 C 515.68164 51.812995 516.57585 47.919421 518.36328 45.238281 C 520.15071 42.493308 522.60833 41.121094 525.73633 41.121094 z M 176.80469 58.546875 L 176.80469 62.857422 C 176.80469 66.176929 175.75114 68.762021 173.64453 70.613281 C 171.53792 72.400708 168.95283 73.294922 165.88867 73.294922 C 163.8459 73.294922 162.18689 72.846838 160.91016 71.953125 C 159.63343 70.995578 158.99414 69.432165 158.99414 67.261719 C 158.99414 64.772092 159.88836 62.760596 161.67578 61.228516 C 163.46321 59.696436 166.65572 58.865955 171.25195 58.738281 L 176.80469 58.546875 z "
      transform="translate(141.81934,393.4483)" />
    <style id="style63564">
      .waves&gt;

      g {
        animation: waveAnimation linear infinite;
      }

      @keyframes waveAnimation {
        to {
          transform: none;
        }

        from {
          transform: translateX(-465.454px);
        }
      }
    </style>
  </g>
</svg>
