<svg version="1.1" viewBox="0 0 600 136" xmlns="http://www.w3.org/2000/svg" xmlns:xlink="http://www.w3.org/1999/xlink"
  preserveAspectRatio="none">
  <g transform="translate(-861.23 -1086.7)" class="waves">
    <rect x="861.23" y="1086.7" width="600" height="136" fill="#444468" fill-rule="evenodd" />
    <g style="animation-duration: 5003ms">
      <use transform="translate(389.47 -270.65)" width="100%" height="100%" fill="#ffd600"
        xlink:href="#rect4111-0-6-4-10" />
    </g>
    <g style="animation-duration: 8677ms">
      <use transform="translate(40.384 -270.65)" width="100%" height="100%" fill="#a2a2c2"
        xlink:href="#rect4111-0-6-4-10" />
    </g>
    <g style="animation-duration: 6133ms">
      <use transform="translate(273.11 -270.65)" width="100%" height="100%" fill="#ff4997"
        xlink:href="#rect4111-0-6-4-10" />
    </g>
    <g style="animation-duration: 9697ms">
      <use transform="translate(156.75 -270.65)" width="100%" height="100%" fill="#5d02fd"
        xlink:href="#rect4111-0-6-4-10" />
    </g>
    <path id="rect4111-0-6-4-10"
      d="m515.9 1357.4c-58.741-0.08-85.779 53.527-111.41 88.141v91.859h1861.8v-91.859c-39.608 54.633-78.501 82.831-231.29-33.379-152.79-116.21-195.11-19.365-234.17 33.379-39.608 54.633-78.5 82.831-231.29-33.379-52.52-39.947-91.987-54.72-122.76-54.762-58.741-0.08-85.779 53.527-111.41 88.141-39.608 54.633-78.499 82.831-231.29-33.379-152.79-116.21-195.11-19.365-234.17 33.379-39.608 54.633-78.501 82.831-231.29-33.379-52.52-39.947-91.987-54.72-122.76-54.762z" />
    <rect transform="scale(1,-1)" x="561.23" y="-1222.7" width="800" height="136" fill-opacity="0" />
  </g>
  <style>
    .waves>g {
      animation: waveAnimation linear infinite;
    }

    @keyframes waveAnimation {
      to {
        transform: none;
      }

      from {
        transform: translateX(-465.454px);
      }
    }
  </style>
</svg>
