<svg version="1.1" viewBox="0 0 800 136" xmlns="http://www.w3.org/2000/svg">
 <g transform="translate(-561.23 -1086.7)">
  <g fill-rule="evenodd">
   <rect x="561.23" y="1086.7" width="800" height="136" fill="#a2a2c2"/>
   <path d="m905.37 1086.7c-58.741-0.08-85.777 53.527-111.41 88.141v91.859h1861.8v-91.859c-39.608 54.633-78.499 82.831-231.29-33.379-152.79-116.21-195.11-19.365-234.17 33.379-39.608 54.633-78.5 82.831-231.29-33.379-52.521-39.947-91.987-54.72-122.76-54.762-58.741-0.08-85.779 53.527-111.41 88.141-39.608 54.633-78.501 82.831-231.29-33.379-152.79-116.21-195.11-19.365-234.17 33.379-39.608 54.633-78.5 82.831-231.29-33.379-52.521-39.947-91.987-54.72-122.76-54.762z" fill="#ffd600"/>
   <path d="m789.01 1086.7c-58.741-0.08-85.779 53.527-111.41 88.141v91.859h1861.8v-91.859c-39.608 54.633-78.501 82.831-231.29-33.379-152.79-116.21-195.11-19.365-234.16 33.379-39.608 54.633-78.501 82.831-231.29-33.379-52.52-39.947-91.989-54.72-122.76-54.762-58.741-0.08-85.777 53.527-111.41 88.141-39.608 54.633-78.501 82.831-231.29-33.379-152.79-116.21-195.11-19.365-234.17 33.379-39.608 54.633-78.501 82.831-231.29-33.379-52.521-39.947-91.987-54.72-122.76-54.762z" fill="#ff4997"/>
  </g>
  <path d="m672.64 1086.7c-58.741-0.08-85.779 53.527-111.41 88.141v91.859h1861.8v-91.859c-39.608 54.633-78.501 82.831-231.29-33.379-152.79-116.21-195.11-19.365-234.17 33.379-39.608 54.633-78.501 82.831-231.29-33.379-52.521-39.947-91.987-54.72-122.76-54.762-58.741-0.08-85.777 53.527-111.41 88.141-39.608 54.633-78.501 82.831-231.29-33.379-152.79-116.21-195.11-19.365-234.17 33.379-39.608 54.633-78.501 82.831-231.29-33.379-52.521-39.947-91.987-54.72-122.76-54.762z" fill="#5900ff" fill-opacity=".97647" fill-rule="evenodd"/>
  <path d="m556.28 1086.7c-58.741-0.08-85.779 53.527-111.41 88.141v91.859h1861.8v-91.859c-39.608 54.633-78.501 82.831-231.29-33.379-152.79-116.21-195.11-19.365-234.17 33.379-39.608 54.633-78.5 82.831-231.29-33.379-52.52-39.947-91.987-54.72-122.76-54.762-58.741-0.08-85.779 53.527-111.41 88.141-39.608 54.633-78.499 82.831-231.29-33.379-152.79-116.21-195.11-19.365-234.17 33.379-39.608 54.633-78.501 82.831-231.29-33.379-52.52-39.947-91.987-54.72-122.76-54.762z" fill="#444468" fill-rule="evenodd"/>
  <rect transform="scale(1,-1)" x="561.23" y="-1222.7" width="800" height="136" fill-opacity="0"/>
 </g>
</svg>
