<?xml version="1.0" encoding="UTF-8"?>
<svg width="176.19mm" height="26.864mm" version="1.1" viewBox="0 0 176.19 26.864" xmlns="http://www.w3.org/2000/svg">
 <g transform="translate(-9.0358 -79.273)">
  <text x="55.373249" y="109.32909" fill="#000000" font-family="sans-serif" font-size="10.583px" stroke-width=".26458" style="line-height:1.25" xml:space="preserve"><tspan x="55.373249" y="109.32909" stroke-width=".26458"/></text>
  <g transform="matrix(2.5543 0 0 2.5543 -149.48 -212.92)">
   <path d="m70.283 117.76q0-0.77515 0.77514-0.77515h4.3925l-0.77514 1.5503h-2.3254q-0.25838 0-0.25838 0.25838v1.9379q0 0.25839 0.25838 0.25839h3.1006l-0.77514 1.5503h-3.6173q-0.77514 0-0.77514-0.77514z" fill="#f0f"/>
   <path d="m71.342 118.82q0-0.77515 0.77514-0.77515h4.3925l-0.77514 1.5503h-2.3254q-0.25838 0-0.25838 0.25838v1.9379q0 0.25838 0.25838 0.25838h3.1006l-0.77514 1.5503h-3.6173q-0.77514 0-0.77514-0.77514z" fill="#0098ff"/>
   <path d="m70.813 118.29q0-0.77515 0.77514-0.77515h4.3925l-0.77514 1.5503h-2.3254q-0.25838 0-0.25838 0.25838v1.9379q0 0.25839 0.25838 0.25839h3.1006l-0.77514 1.5503h-3.6173q-0.77514 0-0.77514-0.77514z" fill="#fff"/>
  </g>
  <g transform="matrix(2.5543 0 0 2.5543 -150.01 -210.91)">
   <path d="m67.441 118.28h-0.25838q-0.25838 0-0.25838 0.38757 0 0.38758 0.25838 0.38758t0.25838-0.38758zm1.8087 1.2919q0 0.77514-0.77514 0.77514h-2.5838q-0.77514 0-0.77514-0.77514v-1.6795q0-0.77514 0.77514-0.77514h1.5503v-0.25839q0-0.25838-0.25838-0.25838h-2.0671q-0.25838 0-0.25838 0.25838v3.6173q0.0052 0.25838 0.25838 0.25838h3.6173l-0.77514 1.5503h-4.1341q-0.77514 0-0.77514-0.77514v-5.6844q0-0.77515 0.77514-0.77515h4.6509q0.77514 0 0.77514 0.76998z" fill="#f0f"/>
   <path d="m68.5 119.34h-0.25838q-0.25838 0-0.25838 0.38757t0.25838 0.38757q0.25838 0 0.25838-0.38757zm1.8087 1.2919q0 0.77515-0.77514 0.77515h-2.5838q-0.77514 0-0.77514-0.77515v-1.6795q0-0.77515 0.77514-0.77515h1.5503v-0.25838q0-0.25838-0.25838-0.25838h-2.067q-0.25838 0-0.25838 0.25838v3.6173q0.0052 0.25838 0.25838 0.25838h3.6173l-0.77514 1.5503h-4.1341q-0.77514 0-0.77514-0.77514v-5.6844q0-0.77515 0.77514-0.77515h4.6509q0.77514 0 0.77514 0.76998z" fill="#0098ff"/>
   <path d="m67.97 118.81h-0.25838q-0.25838 0-0.25838 0.38757 0 0.38758 0.25838 0.38758 0.25838 0 0.25838-0.38758zm1.8087 1.2919q0 0.77514-0.77514 0.77514h-2.5838q-0.77514 0-0.77514-0.77514v-1.6795q0-0.77514 0.77514-0.77514h1.5503v-0.25839q0-0.25838-0.25838-0.25838h-2.067q-0.25838 0-0.25838 0.25838v3.6173q0.0052 0.25838 0.25838 0.25838h3.6173l-0.77514 1.5503h-4.1341q-0.77514 0-0.77514-0.77514v-5.6844q0-0.77515 0.77514-0.77515h4.6509q0.77514 0 0.77514 0.76998z" fill="#fff"/>
  </g>
  <g transform="matrix(2.5543 0 0 2.5543 -149.48 -212.92)">
   <path d="m79.844 120.22h-1.5503q-0.25838 0-0.25838 0.25838v0.25838q0 0.25839 0.25838 0.25839h1.5503zm1.8087 2.3254h-4.6509q-0.77514 0-0.77514-0.77514v-1.9379q0-0.77514 0.77514-0.77514h2.8422v-0.25839q0-0.25838-0.25838-0.25838h-2.8422l0.77514-1.5503h3.359q0.77514 0 0.77514 0.77515z" fill="#f0f"/>
   <path d="m80.902 121.27h-1.5503q-0.25838 0-0.25838 0.25838v0.25838q0 0.25838 0.25838 0.25838h1.5503zm1.8087 2.3254h-4.6509q-0.77514 0-0.77514-0.77514v-1.9379q0-0.77515 0.77514-0.77515h2.8422v-0.25838q0-0.25838-0.25838-0.25838h-2.8422l0.77514-1.5503h3.359q0.77514 0 0.77514 0.77515z" fill="#0098ff"/>
   <path d="m80.373 120.74h-1.5503q-0.25838 0-0.25838 0.25838v0.25838q0 0.25839 0.25838 0.25839h1.5503zm1.8087 2.3254h-4.6509q-0.77514 0-0.77514-0.77514v-1.9379q0-0.77514 0.77514-0.77514h2.8422v-0.25839q0-0.25838-0.25838-0.25838h-2.8422l0.77514-1.5503h3.359q0.77514 0 0.77514 0.77515z" fill="#fff"/>
  </g>
  <g transform="matrix(2.5543 0 0 2.5543 -150.01 -212.92)">
   <path d="m85.786 122.54h-1.8087v-4.1341h-1.2919v-1.4211h1.2919l-0.0052-1.1627h1.8138v1.1627h1.2919v1.4211h-1.2919z" fill="#f0f"/>
   <path d="m86.845 123.6h-1.8087v-4.1341h-1.2919v-1.4211h1.2919l-0.0052-1.1627h1.8138v1.1627h1.2919v1.4211h-1.2919z" fill="#0098ff"/>
   <path d="m86.316 123.07h-1.8087v-4.1341h-1.2919v-1.4211h1.2919l-0.0052-1.1627h1.8138v1.1627h1.2919v1.4211h-1.2919z" fill="#fff"/>
   <path d="m89.915 118.54 0.0052 4.0049h-1.8087v-7.3639h1.8087v1.8087h2.8422q0.76998 0 0.77514 0.77515v4.78h-1.8087v-3.7465q-0.0052-0.25838-0.25838-0.25838z" fill="#f0f"/>
   <path d="m90.974 119.59 0.0052 4.0049h-1.8087v-7.3639h1.8087v1.8087h2.8422q0.76998 0 0.77514 0.77515v4.78h-1.8087v-3.7465q-0.0052-0.25838-0.25838-0.25838z" fill="#0098ff"/>
   <path d="m90.444 119.06 0.0052 4.0049h-1.8087v-7.3639h1.8087v1.8087h2.8422q0.76998 0 0.77514 0.77515v4.78h-1.8087v-3.7465q-0.0052-0.25838-0.25838-0.25838z" fill="#fff"/>
  </g>
  <g transform="matrix(2.5543 0 0 2.5543 -149.48 -212.92)">
   <path d="m94.571 116.99h1.8087v5.5552h-1.8087zm1.8087-0.51676h-1.8087v-1.2919h1.8087z" fill="#f0f"/>
   <path d="m95.63 118.04h1.8087v5.5552h-1.8087zm1.8087-0.51676h-1.8087v-1.2919h1.8087z" fill="#0098ff"/>
   <path d="m95.1 117.51h1.8087v5.5552h-1.8087zm1.8087-0.51676h-1.8087v-1.2919h1.8087z" fill="#fff"/>
  </g>
  <g transform="matrix(2.5543 0 0 2.5543 -148.95 -212.92)">
   <path d="m99.222 118.79v0.51677h1.5503q0.25838 0 0.25838-0.25838v-0.25839q0-0.25838-0.25838-0.25838h-1.2919q-0.25838 5e-3 -0.25838 0.25838zm-1.8087-1.0335q0-0.77515 0.77514-0.77515h3.8757q0.77514 0 0.77514 0.90434v1.9379q0 0.64595-0.77514 0.64595h-2.8422v0.25838q0 0.25839 0.25838 0.25839h2.8422l-0.77514 1.5503h-3.359q-0.77514 0-0.77514-0.77514z" fill="#f0f"/>
   <path d="m100.28 119.85v0.51676h1.5503q0.25838 0 0.25838-0.25838v-0.25838q0-0.25838-0.25838-0.25838h-1.2919q-0.25838 5e-3 -0.25838 0.25838zm-1.8087-1.0335q0-0.77515 0.77514-0.77515h3.8757q0.77515 0 0.77515 0.90434v1.9379q0 0.64595-0.77515 0.64595h-2.8422v0.25838q0 0.25838 0.25838 0.25838h2.8422l-0.77514 1.5503h-3.359q-0.77514 0-0.77514-0.77514z" fill="#0098ff"/>
   <path d="m99.751 119.32v0.51677h1.5503q0.25838 0 0.25838-0.25838v-0.25839q0-0.25838-0.25838-0.25838h-1.2919q-0.25838 5e-3 -0.25838 0.25838zm-1.8087-1.0335q0-0.77515 0.77514-0.77515h3.8757q0.77514 0 0.77514 0.90434v1.9379q0 0.64595-0.77514 0.64595h-2.8422v0.25838q0 0.25839 0.25838 0.25839h2.8422l-0.77515 1.5503h-3.359q-0.77514 0-0.77514-0.77514z" fill="#fff"/>
  </g>
  <g transform="matrix(2.5543 0 0 2.5543 -148.42 -212.92)">
   <path d="m103.87 117.76q0-0.77515 0.77514-0.77515h4.3925l-0.77515 1.5503h-2.3254q-0.25838 0-0.25838 0.25838v1.9379q0 0.25839 0.25838 0.25839h3.1006l-0.77515 1.5503h-3.6173q-0.77514 0-0.77514-0.77514z" fill="#f0f"/>
   <path d="m104.93 118.82q0-0.77515 0.77515-0.77515h4.3925l-0.77514 1.5503h-2.3254q-0.25838 0-0.25838 0.25838v1.9379q0 0.25838 0.25838 0.25838h3.1006l-0.77514 1.5503h-3.6173q-0.77515 0-0.77515-0.77514z" fill="#0098ff"/>
   <path d="m104.4 118.29q0-0.77515 0.77514-0.77515h4.3925l-0.77514 1.5503h-2.3254q-0.25838 0-0.25838 0.25838v1.9379q0 0.25839 0.25838 0.25839h3.1006l-0.77514 1.5503h-3.6173q-0.77514 0-0.77514-0.77514z" fill="#fff"/>
  </g>
  <g transform="matrix(2.5543 0 0 2.5543 -147.89 -212.92)">
   <path d="m111.62 120.73q0 0.25839 0.25838 0.25839h1.2919q0.25838 0 0.25838-0.25839v-1.9379q-5e-3 -0.25321-0.25838-0.25838h-1.2919q-0.25838 5e-3 -0.25838 0.25838zm3.6173 1.0335q0 0.77514-0.77515 0.77514h-3.8757q-0.77514 0-0.77514-0.77514v-4.0049q0-0.76998 0.77514-0.77515h3.8757q0.77515 5e-3 0.77515 0.77515z" fill="#f0f"/>
   <path d="m112.68 121.79q0 0.25838 0.25839 0.25838h1.2919q0.25838 0 0.25838-0.25838v-1.9379q-5e-3 -0.25321-0.25838-0.25838h-1.2919q-0.25839 5e-3 -0.25839 0.25838zm3.6173 1.0335q0 0.77514-0.77514 0.77514h-3.8757q-0.77515 0-0.77515-0.77514v-4.0049q0-0.76998 0.77515-0.77515h3.8757q0.77514 5e-3 0.77514 0.77515z" fill="#0098ff"/>
   <path d="m112.15 121.26q0 0.25839 0.25838 0.25839h1.2919q0.25838 0 0.25838-0.25839v-1.9379q-5e-3 -0.25321-0.25838-0.25838h-1.2919q-0.25838 5e-3 -0.25838 0.25838zm3.6173 1.0335q0 0.77514-0.77515 0.77514h-3.8757q-0.77514 0-0.77514-0.77514v-4.0049q0-0.76998 0.77514-0.77515h3.8757q0.77515 5e-3 0.77515 0.77515z" fill="#fff"/>
  </g>
  <g transform="matrix(2.5543 0 0 2.5543 -147.36 -212.92)">
   <path d="m118.34 120.99h1.5503v-2.4546h-1.5503q-0.25322 0-0.25839 0.25838v1.9379q0 0.25839 0.25839 0.25839zm-1.2919 1.5503q-0.77515 0-0.77515-0.77514v-4.0049q5e-3 -0.77515 0.77515-0.77515h2.8422v-1.8087h1.8087v7.3639z" fill="#f0f"/>
   <path d="m119.4 122.05h1.5503v-2.4546h-1.5503q-0.25321 0-0.25838 0.25838v1.9379q0 0.25838 0.25838 0.25838zm-1.2919 1.5503q-0.77514 0-0.77514-0.77514v-4.0049q5e-3 -0.77515 0.77514-0.77515h2.8422v-1.8087h1.8087v7.3639z" fill="#0098ff"/>
   <path d="m118.87 121.52h1.5503v-2.4546h-1.5503q-0.25321 0-0.25838 0.25838v1.9379q0 0.25839 0.25838 0.25839zm-1.2919 1.5503q-0.77515 0-0.77515-0.77514v-4.0049q5e-3 -0.77515 0.77515-0.77515h2.8422v-1.8087h1.8087v7.3639z" fill="#fff"/>
  </g>
  <g transform="matrix(2.5543 0 0 2.5543 -146.83 -212.92)">
   <path d="m124.54 118.79v0.51677h1.5503q0.25838 0 0.25838-0.25838v-0.25839q0-0.25838-0.25838-0.25838h-1.2919q-0.25838 5e-3 -0.25838 0.25838zm-1.8087-1.0335q0-0.77515 0.77514-0.77515h3.8757q0.77515 0 0.77515 0.90434v1.9379q0 0.64595-0.77515 0.64595h-2.8422v0.25838q0 0.25839 0.25838 0.25839h2.8422l-0.77514 1.5503h-3.359q-0.77514 0-0.77514-0.77514z" fill="#f0f"/>
   <path d="m125.6 119.85v0.51676h1.5503q0.25838 0 0.25838-0.25838v-0.25838q0-0.25838-0.25838-0.25838h-1.2919q-0.25838 5e-3 -0.25838 0.25838zm-1.8087-1.0335q0-0.77515 0.77515-0.77515h3.8757q0.77514 0 0.77514 0.90434v1.9379q0 0.64595-0.77514 0.64595h-2.8422v0.25838q0 0.25838 0.25838 0.25838h2.8422l-0.77515 1.5503h-3.359q-0.77515 0-0.77515-0.77514z" fill="#0098ff"/>
   <path d="m125.07 119.32v0.51677h1.5503q0.25838 0 0.25838-0.25838v-0.25839q0-0.25838-0.25838-0.25838h-1.2919q-0.25839 5e-3 -0.25839 0.25838zm-1.8087-1.0335q0-0.77515 0.77514-0.77515h3.8757q0.77514 0 0.77514 0.90434v1.9379q0 0.64595-0.77514 0.64595h-2.8422v0.25838q0 0.25839 0.25839 0.25839h2.8422l-0.77514 1.5503h-3.359q-0.77514 0-0.77514-0.77514z" fill="#fff"/>
  </g>
 </g>
</svg>
