<?xml version="1.0" encoding="UTF-8"?>
<svg width="11.493mm" height="11.209mm" version="1.1" viewBox="0 0 11.493 11.209" xmlns="http://www.w3.org/2000/svg" xmlns:cc="http://creativecommons.org/ns#" xmlns:dc="http://purl.org/dc/elements/1.1/" xmlns:rdf="http://www.w3.org/1999/02/22-rdf-syntax-ns#">
 <metadata>
  <rdf:RDF>
   <cc:Work rdf:about="">
    <dc:format>image/svg+xml</dc:format>
    <dc:type rdf:resource="http://purl.org/dc/dcmitype/StillImage"/>
    <dc:title/>
   </cc:Work>
  </rdf:RDF>
 </metadata>
 <g transform="translate(72.976 -110.63)">
  <path d="m-67.23 110.63c-3.1729 0-5.746 2.5728-5.746 5.7468 0 2.5386 1.6464 4.6926 3.9299 5.4529 0.28751 0.0526 0.39229-0.12488 0.39229-0.27728 0-0.13653-0.0049-0.49777-0.0078-0.9772-1.5984 0.34714-1.9357-0.77046-1.9357-0.77046-0.26141-0.66393-0.63818-0.84067-0.63818-0.84067-0.52176-0.35631 0.03951-0.34925 0.03951-0.34925 0.57679 0.0406 0.88018 0.59231 0.88018 0.59231 0.51259 0.87806 1.3451 0.62442 1.6725 0.47731 0.05221-0.37112 0.20073-0.62442 0.36477-0.768-1.276-0.14534-2.6176-0.63817-2.6176-2.8402 0-0.6276 0.22401-1.1402 0.59161-1.542-0.05927-0.14534-0.25647-0.72954 0.05644-1.5208 0 0 0.48225-0.15452 1.5801 0.58879 0.45826-0.12736 0.95003-0.19086 1.4386-0.19333 0.48824 2e-3 0.97966 0.066 1.4386 0.19333 1.0971-0.74331 1.5787-0.58879 1.5787-0.58879 0.31362 0.79128 0.11642 1.3755 0.0575 1.5208 0.3683 0.40182 0.59055 0.9144 0.59055 1.542 0 2.2077-1.3437 2.6935-2.6236 2.8356 0.20602 0.17745 0.38982 0.52811 0.38982 1.0643 0 0.76799-0.0071 1.3878-0.0071 1.5762 0 0.15381 0.10372 0.33267 0.39511 0.27657 2.2818-0.76164 3.9268-2.9139 3.9268-5.4522 0-3.1739-2.5732-5.7468-5.7471-5.7468" fill="#1b1817" fill-rule="evenodd"/>
 </g>
</svg>
